<svg width="32" height="32" viewBox="0 0 32 32" fill="none" xmlns="http://www.w3.org/2000/svg">
<path d="M28 8L25.528 9.81281C25.185 10.0644 24.7706 10.2 24.3453 10.2H18.7236C17.9726 10.2 17.2848 10.6207 16.9429 11.2894L16.743 11.6804C16.3105 12.5261 16.5325 13.5594 17.2743 14.1527L21.6624 17.6632C23.2728 18.9516 24.1087 20.9767 23.8758 23.0259L23.6251 25.2327C23.5421 25.963 23.3589 26.6783 23.0806 27.3585L22 30" stroke="#222222"/>
<path d="M3 14.5L8.90705 13.4776C10.2594 13.2436 11.4404 14.4101 11.2229 15.7653L10.68 19.1475C10.4067 20.8503 11.2556 22.5366 12.7862 23.3313L13.9162 23.918C15.1403 24.5536 15.7733 25.9418 15.4505 27.2827L14.5556 31" stroke="#222222"/>
<circle cx="17" cy="17" r="14.5" stroke="#222222"/>
</svg>
